<?xml version="1.0" encoding="UTF-8"?>
<svg viewBox="0 0 580 300" xmlns="http://www.w3.org/2000/svg" role="img" font-family="'Segoe UI', system-ui, sans-serif">
  <title>Chapter 13 — Spring AI streaming over Server-Sent Events</title>
  <desc>Ollama streams tokens to Spring AI, which pushes them one at a time to the browser over SSE.</desc>
  <rect width="580" height="300" fill="#f8f9fa" rx="12"/>
  <rect x="30" y="110" width="150" height="80" rx="10" fill="white" stroke="#5b6abf" stroke-width="2"/>
  <text x="105" y="140" text-anchor="middle" font-size="13" font-weight="700" fill="#2d3494">Browser</text>
  <text x="105" y="158" text-anchor="middle" font-size="10" fill="#999">EventSource</text>
  <text x="105" y="176" text-anchor="middle" font-size="10" fill="#555">types word-by-word</text>
  <rect x="215" y="90" width="170" height="120" rx="10" fill="white" stroke="#e67e22" stroke-width="2"/>
  <text x="300" y="120" text-anchor="middle" font-size="13" font-weight="700" fill="#7a3b00">Spring AI</text>
  <text x="300" y="138" text-anchor="middle" font-size="10" fill="#999">JVM</text>
  <text x="300" y="162" text-anchor="middle" font-size="10" fill="#555">.stream().content()</text>
  <text x="300" y="180" text-anchor="middle" font-size="10" fill="#555">Flux&lt;String&gt;</text>
  <rect x="420" y="110" width="140" height="80" rx="10" fill="white" stroke="#5aaa6b" stroke-width="2"/>
  <text x="490" y="140" text-anchor="middle" font-size="13" font-weight="700" fill="#1b6b2f">Ollama</text>
  <text x="490" y="158" text-anchor="middle" font-size="10" fill="#999">llama3.2</text>
  <text x="490" y="176" text-anchor="middle" font-size="10" fill="#555">generates tokens</text>
  <path d="M 420 150 L 385 150" fill="none" stroke="#5aaa6b" stroke-width="1.8" marker-end="url(#s13a)"/>
  <path d="M 215 150 L 180 150" fill="none" stroke="#5b6abf" stroke-width="1.8" marker-end="url(#s13b)"/>
  <text x="300" y="235" text-anchor="middle" font-size="10" fill="#777">token ← token ← token   (Server-Sent Events: text/event-stream)</text>
  <text x="300" y="255" text-anchor="middle" font-size="10" fill="#aaa">one HTTP connection, many data: events</text>
  <defs>
    <marker id="s13a" markerWidth="8" markerHeight="8" refX="6" refY="3" orient="auto"><path d="M0,0 L0,6 L8,3 z" fill="#5aaa6b"/></marker>
    <marker id="s13b" markerWidth="8" markerHeight="8" refX="6" refY="3" orient="auto"><path d="M0,0 L0,6 L8,3 z" fill="#5b6abf"/></marker>
  </defs>
</svg>
